{"title":"To Kill A Mockingbird[1962]BRrip[Ac3-5.1]-=[CaLvIn]=-","uid":7291859,"size":851980968,"categoryP":"video","categoryS":"movies","magnet":"?xt=urn:btih:2a78d67e9daa4455db3e176b168230fb95cd33c4&amp;dn=To+Kill+A+Mockingbird%5B1962%5DBRrip%5BAc3-5.1%5D-%3D%5BCaLvIn%5D%3D-&amp;tr=udp%3A%2F%2Ftracker.openbittorrent.com%3A80&amp;tr=udp%3A%2F%2Fopen.demonii.com%3A1337&amp;tr=udp%3A%2F%2Ftracker.coppersurfer.tk%3A6969&amp;tr=udp%3A%2F%2Fexodus.desync.com%3A6969","seeders":0,"leechers":1,"uploader":"rhythmtheguru","files":15,"time":1337763310,"description":"General\nComplete name                    : To Kill A Mockingbird[1962]BRrip[Ac3-5.1]-=[CaLvIn]=-\nImdb Link                        : http://www.imdb.com/title/tt0056592\nFormat                           : AVI\nFormat/Info                      : Audio Video Interleave\nFile size                        : 798 MiB\nDuration                         : 2h 9mn\nOverall bit rate                 : 864 Kbps\n\nVideo\nID                               : 0\nFormat                           : MPEG-4 Visual\nFormat profile                   : Advanced Simple@L5\nFormat settings, BVOP            : 2\nFormat settings, QPel            : No\nFormat settings, GMC             : No warppoints\nFormat settings, Matrix          : Default (H.263)\nCodec ID                         : XVID\nCodec ID/Hint                    : XviD\nDuration                         : 2h 9mn\nBit rate                         : 726 Kbps\nWidth                            : 720 pixels\nHeight                           : 400 pixels\nDisplay aspect ratio             : 16:9\nFrame rate                       : 23.976 fps\nColor space                      : YUV\nChroma subsampling               : 4:2:0\nBit depth                        : 8 bits\nScan type                        : Progressive\nCompression mode                 : Lossy\nBits/(Pixel*Frame)               : 0.105\nStream size                      : 671 MiB (84%)\nWriting library                  : XviD 1.2.1 (UTC 2008-12-04)\n\nAudio\nID                               : 1\nFormat                           : AC-3\nFormat/Info                      : Audio Coding 3\nMode extension                   : CM (complete main)\nCodec ID                         : 2000\nDuration                         : 2h 9mn\nBit rate mode                    : Constant\nBit rate                         : 128 Kbps\nChannel(s)                       : 6 channels\nChannel positions                : Front: L C R, Side: L R, LFE\nSampling rate                    : 48.0 KHz\nBit depth                        : 16 bits\nCompression mode                 : Lossy\nStream size                      : 118 MiB (15%)\nAlignment                        : Split accross interleaves\nInterleave, duration             : 42 ms (1.00 video frame)\nInterleave, preload duration     : 500 ms\n\nScreens\n\n &lt;a href=&quot;\nhttp://img860.imageshack.us/img860/6845/screenkd.png&quot; rel=&quot;nofollow&quot; target=&quot;_NEW&quot;&gt;\nhttp://img860.imageshack.us/img860/6845/screenkd.png&lt;/a&gt; &lt;a href=&quot;\nhttp://img843.imageshack.us/img843/5161/23829112.png&quot; rel=&quot;nofollow&quot; target=&quot;_NEW&quot;&gt;\nhttp://img843.imageshack.us/img843/5161/23829112.png&lt;/a&gt; &lt;a href=&quot;\nhttp://img337.imageshack.us/img337/5914/98805227.png&quot; rel=&quot;nofollow&quot; target=&quot;_NEW&quot;&gt;\nhttp://img337.imageshack.us/img337/5914/98805227.png&lt;/a&gt; &lt;a href=&quot;\nhttp://img140.imageshack.us/img140/5817/49584374.png&quot; rel=&quot;nofollow&quot; target=&quot;_NEW&quot;&gt;\nhttp://img140.imageshack.us/img140/5817/49584374.png&lt;/a&gt; &lt;a href=&quot;\nhttp://img3.imageshack.us/img3/227/40441178.png&quot; rel=&quot;nofollow&quot; target=&quot;_NEW&quot;&gt;\nhttp://img3.imageshack.us/img3/227/40441178.png&lt;/a&gt; &lt;a href=&quot;\nhttp://img268.imageshack.us/img268/9436/59591120.png&quot; rel=&quot;nofollow&quot; target=&quot;_NEW&quot;&gt;\nhttp://img268.imageshack.us/img268/9436/59591120.png&lt;/a&gt; &lt;a href=&quot;\nhttp://img444.imageshack.us/img444/294/92487808.png&quot; rel=&quot;nofollow&quot; target=&quot;_NEW&quot;&gt;\nhttp://img444.imageshack.us/img444/294/92487808.png&lt;/a&gt; &lt;a href=&quot;\nhttp://img137.imageshack.us/img137/2978/69061419.png&quot; rel=&quot;nofollow&quot; target=&quot;_NEW&quot;&gt;\nhttp://img137.imageshack.us/img137/2978/69061419.png&lt;/a&gt; &lt;a href=&quot;\nhttp://img204.imageshack.us/img204/2117/37479397.png&quot; rel=&quot;nofollow&quot; target=&quot;_NEW&quot;&gt;\nhttp://img204.imageshack.us/img204/2117/37479397.png&lt;/a&gt; &lt;a href=&quot;\nhttp://img444.imageshack.us/img444/2500/26850484.png&quot; rel=&quot;nofollow&quot; target=&quot;_NEW&quot;&gt;\nhttp://img444.imageshack.us/img444/2500/26850484.png&lt;/a&gt; &lt;a href=&quot;\nhttp://img26.imageshack.us/img26/3866/72805724.png&quot; rel=&quot;nofollow&quot; target=&quot;_NEW&quot;&gt;\nhttp://img26.imageshack.us/img26/3866/72805724.png&lt;/a&gt;\n","torrent":{"xt":"urn:btih:2a78d67e9daa4455db3e176b168230fb95cd33c4","amp;dn":"To+Kill+A+Mockingbird%5B1962%5DBRrip%5BAc3-5.1%5D-%3D%5BCaLvIn%5D%3D-","amp;tr":["udp%3A%2F%2Ftracker.openbittorrent.com%3A80","udp%3A%2F%2Fopen.demonii.com%3A1337","udp%3A%2F%2Ftracker.coppersurfer.tk%3A6969","udp%3A%2F%2Fexodus.desync.com%3A6969"],"infoHash":"2a78d67e9daa4455db3e176b168230fb95cd33c4","infoHashBuffer":{"type":"Buffer","data":[42,120,214,126,157,170,68,85,219,62,23,107,22,130,48,251,149,205,51,196]},"announce":[],"urlList":[]}}